<svg width="44" height="44" viewBox="0 0 44 44" fill="none" xmlns="http://www.w3.org/2000/svg">
<path d="M38.5 7.33341H33V5.50008C33 5.01385 32.8069 4.54754 32.463 4.20372C32.1192 3.8599 31.6529 3.66675 31.1667 3.66675H12.8333C12.3471 3.66675 11.8808 3.8599 11.537 4.20372C11.1932 4.54754 11 5.01385 11 5.50008V7.33341H5.50001C5.01377 7.33341 4.54746 7.52657 4.20364 7.87039C3.85983 8.2142 3.66667 8.68052 3.66667 9.16675V14.6667C3.66667 16.6117 4.43929 18.4769 5.81456 19.8522C7.18982 21.2275 9.05508 22.0001 11 22.0001H13.8233C15.4817 23.8502 17.7174 25.0844 20.1667 25.5017V29.3334H18.3333C16.8746 29.3334 15.4757 29.9129 14.4443 30.9443C13.4128 31.9758 12.8333 33.3747 12.8333 34.8334V38.5001C12.8333 38.9863 13.0265 39.4526 13.3703 39.7964C13.7141 40.1403 14.1804 40.3334 14.6667 40.3334H29.3333C29.8196 40.3334 30.2859 40.1403 30.6297 39.7964C30.9735 39.4526 31.1667 38.9863 31.1667 38.5001V34.8334C31.1667 33.3747 30.5872 31.9758 29.5558 30.9443C28.5243 29.9129 27.1254 29.3334 25.6667 29.3334H23.8333V25.5017C26.2826 25.0844 28.5184 23.8502 30.1767 22.0001H33C34.9449 22.0001 36.8102 21.2275 38.1855 19.8522C39.5607 18.4769 40.3333 16.6117 40.3333 14.6667V9.16675C40.3333 8.68052 40.1402 8.2142 39.7964 7.87039C39.4526 7.52657 38.9862 7.33341 38.5 7.33341V7.33341ZM11 18.3334C10.0275 18.3334 9.09491 17.9471 8.40728 17.2595C7.71965 16.5718 7.33334 15.6392 7.33334 14.6667V11.0001H11V14.6667C11.004 15.9165 11.221 17.1565 11.6417 18.3334H11ZM25.6667 33.0001C26.1529 33.0001 26.6192 33.1932 26.963 33.537C27.3068 33.8809 27.5 34.3472 27.5 34.8334V36.6667H16.5V34.8334C16.5 34.3472 16.6932 33.8809 17.037 33.537C17.3808 33.1932 17.8471 33.0001 18.3333 33.0001H25.6667ZM29.3333 14.6667C29.3333 16.6117 28.5607 18.4769 27.1855 19.8522C25.8102 21.2275 23.9449 22.0001 22 22.0001C20.0551 22.0001 18.1898 21.2275 16.8146 19.8522C15.4393 18.4769 14.6667 16.6117 14.6667 14.6667V7.33341H29.3333V14.6667ZM36.6667 14.6667C36.6667 15.6392 36.2804 16.5718 35.5927 17.2595C34.9051 17.9471 33.9725 18.3334 33 18.3334H32.3583C32.779 17.1565 32.996 15.9165 33 14.6667V11.0001H36.6667V14.6667Z" fill="white"/>
</svg>
