<svg width="2467" height="284" viewBox="0 0 2467 284" fill="none" xmlns="http://www.w3.org/2000/svg">
<path opacity="0.2" d="M0 139.166H662.366C662.366 139.166 662.366 259.026 662.366 271.23C662.366 283.434 675.863 282.998 675.863 282.998H1018.29C1018.29 282.998 1031.79 283.434 1031.79 271.23C1031.79 259.026 1031.79 23.0215 1031.79 12.7681C1031.79 1 1045.29 1 1045.29 1H1336.73C1336.73 1 1349.73 1 1349.73 12.3322C1349.73 22.2084 1349.73 259.026 1349.73 271.23C1349.73 283.434 1363.22 282.998 1363.22 282.998H1697.16C1697.16 282.998 1710.65 283.434 1710.65 271.23C1710.65 259.026 1710.65 139.166 1710.65 139.166H2467" stroke="#1E2746" stroke-width="2"/>
</svg>
